<svg version="1.1" id="Layer_1" xmlns="http://www.w3.org/2000/svg" xmlns:xlink="http://www.w3.org/1999/xlink" x="0px" y="0px"
	 width="100%" viewBox="0 0 512 512" enable-background="new 0 0 512 512" xml:space="preserve">
<path fill="#000000" opacity="1.000000" stroke="none" 
	d="
M234.999908,401.371307 
	C222.335968,401.372131 210.169647,401.235504 198.009476,401.449310 
	C193.882690,401.521881 192.550156,400.155182 192.572495,396.024353 
	C192.635376,384.399750 194.513992,385.391571 181.978607,385.376251 
	C165.982239,385.356659 149.984482,385.262115 133.990387,385.454773 
	C129.840057,385.504730 128.548340,384.119293 128.573792,380.011597 
	C128.645493,368.439575 130.444366,369.403870 117.935104,369.376129 
	C112.436386,369.363922 106.934662,369.262939 101.439972,369.411652 
	C98.194733,369.499451 96.686913,368.603485 96.586372,364.961853 
	C96.266251,353.367188 96.125114,353.372833 84.373894,353.372833 
	C79.208420,353.372864 74.041412,353.287048 68.878090,353.389984 
	C66.013023,353.447113 64.716461,352.493439 64.592957,349.398071 
	C64.443619,345.655060 66.329582,341.092865 63.490925,338.356628 
	C60.865658,335.826080 56.460709,337.478485 52.860828,337.436981 
	C49.508274,337.398376 48.702694,335.948120 48.611534,332.877960 
	C48.281044,321.747437 48.191399,321.591217 37.363483,321.444275 
	C33.528683,321.392212 32.625431,319.905151 32.593891,316.372650 
	C32.497604,305.586945 32.372490,305.451782 21.848415,305.436279 
	C18.079935,305.430725 16.520641,304.415375 16.587503,300.360016 
	C16.798990,287.533081 16.763229,274.699188 16.600985,261.870819 
	C16.553606,258.124695 17.548580,256.567291 21.626286,256.566040 
	C32.451439,256.562775 32.648849,256.380615 32.566902,245.861633 
	C32.533390,241.560043 34.159924,240.458237 38.137981,240.587433 
	C45.461777,240.825317 52.800507,240.561356 60.130047,240.683914 
	C63.309456,240.737091 64.829933,239.518341 64.628098,236.307327 
	C64.617683,236.141693 64.632088,235.974197 64.639725,235.807785 
	C65.151199,224.657883 65.151237,224.658401 76.182869,224.654099 
	C81.514992,224.652008 86.850349,224.534348 92.178032,224.686432 
	C95.404427,224.778534 96.602974,223.459824 96.697853,220.288635 
	C96.805725,216.683380 95.134819,212.229553 97.636047,209.681412 
	C100.154846,207.115356 104.624275,208.770187 108.220993,208.717224 
	C111.431458,208.669983 112.718376,207.477509 112.677444,204.275452 
	C112.579475,196.611923 112.779732,188.943497 112.613014,181.282425 
	C112.538109,177.839920 113.763824,176.675125 117.229317,176.596283 
	C128.665436,176.336090 128.663620,176.214005 128.663696,164.793991 
	C128.663879,138.799866 128.770584,112.804878 128.564514,86.812378 
	C128.526901,82.068054 129.810959,80.446968 134.704041,80.550392 
	C145.787888,80.784653 144.886276,81.926071 144.522522,70.836258 
	C144.345810,65.448975 146.400452,64.418167 151.164993,64.575142 
	C162.984268,64.964554 161.352234,63.413731 161.252075,74.677185 
	C161.212280,79.151695 162.385864,80.879288 167.143066,80.764542 
	C177.279770,80.520004 177.478485,80.763199 177.258759,90.654305 
	C177.159775,95.110039 178.352310,96.768608 183.121353,96.753357 
	C232.276413,96.596153 281.432404,96.593719 330.587433,96.751953 
	C335.481232,96.767700 336.825684,95.179413 336.762146,90.448952 
	C336.612152,79.283348 335.250641,80.590828 346.543488,80.763268 
	C351.390991,80.837288 352.827972,79.277794 352.765594,74.492050 
	C352.622009,63.473053 351.063019,64.754234 362.499084,64.671219 
	C369.327789,64.621651 369.327423,64.681221 369.349182,71.516045 
	C369.381012,81.518623 368.420746,80.631516 378.480591,80.659615 
	C385.324951,80.678726 385.343018,80.679222 385.344910,87.491837 
	C385.352600,115.152260 385.447296,142.813370 385.253601,170.472458 
	C385.220215,175.240326 386.590240,176.843796 391.454285,176.768021 
	C402.578827,176.594772 401.235535,175.161530 401.340363,186.450134 
	C401.394531,192.281647 401.479187,198.117920 401.303375,203.944611 
	C401.202576,207.285355 402.213226,208.667999 405.813721,208.727173 
	C416.883820,208.909149 416.986572,209.044876 417.288177,220.312668 
	C417.374359,223.531708 418.424408,224.759552 421.680542,224.693375 
	C429.175659,224.541092 436.680328,224.800964 444.172699,224.592438 
	C447.975647,224.486588 449.434021,225.636169 449.436310,229.668198 
	C449.442535,240.650986 449.617554,240.651062 460.533173,240.657852 
	C466.031921,240.661285 471.531738,240.729797 477.028931,240.639313 
	C479.803284,240.593643 481.320251,241.336166 481.403961,244.525711 
	C481.502838,248.293182 479.706787,252.934097 482.328613,255.621780 
	C484.975311,258.334961 489.633423,256.475586 493.392609,256.594818 
	C496.496277,256.693298 497.383087,258.028961 497.367279,260.889679 
	C497.292725,274.386169 497.283295,287.883606 497.366791,301.379974 
	C497.385803,304.453766 496.054749,305.296844 493.153046,305.407196 
	C481.798248,305.839020 481.665924,305.921082 481.414764,316.880768 
	C481.333435,320.430511 480.000641,321.372589 476.653107,321.420898 
	C465.813690,321.577179 465.682098,321.686981 465.415100,332.881805 
	C465.330475,336.430237 464.000305,337.371429 460.652588,337.420929 
	C449.626160,337.583832 449.448456,337.695435 449.437073,348.391693 
	C449.432739,352.458313 447.909698,353.528412 444.130951,353.414032 
	C436.972717,353.197327 429.799469,353.499176 422.639191,353.318848 
	C418.867310,353.223816 417.295013,354.402405 417.270752,358.434265 
	C417.205017,369.367035 417.046875,369.365906 406.094452,369.371521 
	C400.762329,369.374268 395.427399,369.484039 390.099121,369.342468 
	C386.726501,369.252869 385.399445,370.518707 385.289520,373.995789 
	C384.929779,385.378235 384.818909,385.372009 373.536011,385.371185 
	C358.039520,385.370056 342.541473,385.494202 327.047485,385.297760 
	C322.694458,385.242554 321.213989,386.680145 321.264069,391.055573 
	C321.381958,401.369141 321.197906,401.370300 310.978088,401.370178 
	C285.818695,401.369934 260.659302,401.370667 234.999908,401.371307 
M384.658112,182.832123 
	C385.192078,178.734802 383.441925,176.915100 379.295471,177.336700 
	C377.976379,177.470825 376.631317,177.351608 375.298157,177.345673 
	C368.691681,177.316254 368.663147,177.315964 368.660767,170.786285 
	C368.650635,142.789459 368.591919,114.792290 368.733215,86.796158 
	C368.754089,82.655678 367.375427,81.225502 363.265076,81.294708 
	C351.730316,81.488937 353.472046,80.663780 353.356445,90.699921 
	C353.280151,97.323181 353.316681,97.308235 346.831360,97.352592 
	C336.205688,97.425270 337.418671,96.382385 337.351807,106.628265 
	C337.308075,113.331139 337.322113,113.344879 330.397949,113.345947 
	C282.070099,113.353371 233.742233,113.368248 185.414368,113.346825 
	C175.458160,113.342407 176.772720,114.085495 176.669373,104.396126 
	C176.594620,97.386314 176.640717,97.405998 169.953903,97.344238 
	C159.443573,97.247154 160.784576,98.415932 160.665131,87.926491 
	C160.590637,81.385239 160.626038,81.384567 153.900360,81.350449 
	C153.233780,81.347069 152.567154,81.345749 151.900589,81.349960 
	C145.366821,81.391190 145.353928,81.391579 145.352478,88.083557 
	C145.346848,114.247261 145.350372,140.410965 145.349869,166.574677 
	C145.349670,177.196365 145.346573,177.393631 134.958694,177.267197 
	C130.562363,177.213715 129.230042,178.651810 129.265610,183.017776 
	C129.448853,205.513718 129.469620,228.013153 129.253479,250.508530 
	C129.207138,255.331375 130.710571,256.833496 135.519302,256.761169 
	C146.671982,256.593384 145.428101,255.262833 145.241379,266.516876 
	C145.162506,271.270508 146.488358,272.856537 151.390625,272.767334 
	C162.685806,272.561829 161.486572,271.270660 161.220718,282.382874 
	C161.096649,287.568878 162.782730,288.769409 167.756119,288.755707 
	C227.082306,288.592194 286.409088,288.652222 345.735718,288.648163 
	C352.619690,288.647675 352.584869,288.631836 352.664368,281.746094 
	C352.781250,271.623199 351.437836,272.748840 361.750244,272.656525 
	C368.627655,272.594940 368.597992,272.624329 368.666779,265.737305 
	C368.767181,255.684357 367.456085,256.761505 377.781738,256.657318 
	C377.948395,256.655640 378.119385,256.631561 378.281036,256.659882 
	C383.465210,257.567261 384.782104,255.141556 384.738800,250.254700 
	C384.542419,228.092316 384.656982,205.927155 384.658112,182.832123 
z"/>
<path fill="#000000" opacity="1.000000" stroke="none" 
	d="
M273.338379,149.135300 
	C273.343262,162.583099 273.248322,175.546402 273.400177,188.506805 
	C273.442749,192.141129 272.271790,193.520599 268.541443,193.415283 
	C260.903290,193.199646 253.251740,193.237915 245.611450,193.416550 
	C242.073929,193.499252 240.544052,192.469330 240.596725,188.639771 
	C240.777283,175.513885 240.749756,162.383148 240.614471,149.256195 
	C240.578949,145.809692 241.778549,144.543594 245.235794,144.616425 
	C253.208939,144.784393 261.188812,144.730576 269.164368,144.635620 
	C272.050842,144.601257 273.612946,145.574570 273.338379,149.135300 
z"/>
<path fill="#000000" opacity="1.000000" stroke="none" 
	d="
M209.349976,200.950287 
	C209.319763,209.343048 209.319763,209.348602 201.626328,209.354828 
	C194.813660,209.360336 187.997833,209.227356 181.189636,209.400620 
	C177.695923,209.489532 176.579300,208.107819 176.613785,204.709473 
	C176.746902,191.583939 176.744873,178.455582 176.620575,165.329910 
	C176.588806,161.974472 177.613464,160.534149 181.157440,160.614914 
	C188.962952,160.792786 196.779266,160.807373 204.583420,160.598404 
	C208.337936,160.497894 209.450760,161.970352 209.402527,165.564606 
	C209.246475,177.193909 209.347824,188.826660 209.349976,200.950287 
z"/>
<path fill="#000000" opacity="1.000000" stroke="none" 
	d="
M327.964172,209.352173 
	C321.320007,209.350525 315.170105,209.252670 309.025116,209.384644 
	C305.864166,209.452545 304.593811,208.299561 304.621826,205.044022 
	C304.737579,191.586105 304.729187,178.126297 304.638824,164.668030 
	C304.618225,161.600555 305.911560,160.606064 308.816772,160.640472 
	C316.957397,160.736908 325.100769,160.738297 333.241241,160.634506 
	C336.202393,160.596756 337.390167,161.714264 337.370728,164.725327 
	C337.283722,178.183655 337.271118,191.643402 337.380463,205.101410 
	C337.407043,208.374084 336.112823,209.636734 332.944855,209.365280 
	C331.460541,209.238083 329.955872,209.348434 327.964172,209.352173 
z"/>
<path fill="#000000" opacity="1.000000" stroke="none" 
	d="
M240.653000,249.972290 
	C240.778671,239.779083 239.585236,240.723190 249.439056,240.665466 
	C255.740479,240.628540 262.046234,240.794235 268.342407,240.609436 
	C271.824463,240.507248 273.493164,241.422882 273.401184,245.308990 
	C273.053589,259.989258 275.122284,257.012787 261.828979,257.327576 
	C257.022461,257.441376 252.211075,257.355957 247.401932,257.347626 
	C240.739120,257.336090 240.739136,257.330475 240.653000,249.972290 
z"/>
</svg>